<?xml version="1.0" encoding="UTF-8" standalone="no"?>
<!-- Created with Inkscape (http://www.inkscape.org/) -->

<svg
   width="100mm"
   height="100mm"
   viewBox="0 0 100 100"
   version="1.1"
   id="svg5"
   sodipodi:docname="logo.svg"
   inkscape:version="1.1.1 (3bf5ae0d25, 2021-09-20)"
   xmlns:inkscape="http://www.inkscape.org/namespaces/inkscape"
   xmlns:sodipodi="http://sodipodi.sourceforge.net/DTD/sodipodi-0.dtd"
   xmlns="http://www.w3.org/2000/svg"
   xmlns:svg="http://www.w3.org/2000/svg">
  <sodipodi:namedview
     id="namedview7"
     pagecolor="#ffffff"
     bordercolor="#666666"
     borderopacity="1.0"
     inkscape:pageshadow="2"
     inkscape:pageopacity="0.0"
     inkscape:pagecheckerboard="0"
     inkscape:document-units="mm"
     showgrid="false"
     inkscape:zoom="3.1108586"
     inkscape:cx="165.54915"
     inkscape:cy="156.22697"
     inkscape:window-width="2437"
     inkscape:window-height="1638"
     inkscape:window-x="416"
     inkscape:window-y="416"
     inkscape:window-maximized="0"
     inkscape:current-layer="layer1" />
  <defs
     id="defs2" />
  <g
     inkscape:label="Layer 1"
     inkscape:groupmode="layer"
     id="layer1">
    <path
       d="m 28.967866,4.4407278 c 1.80664,0 3.500068,0.092542 5.080284,0.2776247 1.580217,0.1850832 3.070718,0.4405836 4.471505,0.7667392 1.400549,0.3263935 2.768583,0.7177326 4.104101,1.1740173 1.33528,0.4565226 2.765497,0.9972605 4.290651,1.6222136 V 13.254065 C 45.275567,12.554888 43.878815,11.926129 42.724626,11.367787 41.570199,10.809207 40.309918,10.316762 38.944021,9.8899761 37.578123,9.4634284 36.115391,9.125378 34.555823,8.8760629 32.996255,8.6267477 31.351244,8.5020902 29.620791,8.5020902 c -3.555843,0 -6.632494,0.3794443 -9.22948,1.1383329 -2.597222,0.7588889 -4.725697,1.8177639 -6.38566,3.1768649 -1.659725,1.3591 -2.89105,3.007958 -3.693975,4.946811 -0.8029247,1.938616 -1.2045057,4.118696 -1.2045057,6.540478 0,2.426778 0.401581,4.604955 1.2042687,6.535006 0.802924,1.930051 2.034961,3.575103 3.696349,4.935393 1.661387,1.360052 3.783453,2.41298 6.366197,3.159022 2.582745,0.745805 5.664856,1.118826 9.246806,1.118826 1.767716,0 3.435986,-0.12323 5.004573,-0.369691 1.568586,-0.24646 3.04912,-0.584273 4.441599,-1.013675 1.39248,-0.429165 2.656321,-0.9159 3.791048,-1.460206 1.134728,-0.544545 2.486859,-1.162123 4.056396,-1.853211 v 4.586399 c -1.553397,0.881643 -2.985988,1.551321 -4.297534,2.008795 -1.311547,0.457474 -2.671985,0.850241 -4.081316,1.178537 -1.409331,0.328535 -2.892712,0.583797 -4.449907,0.766026 -1.557431,0.182466 -3.263439,0.27358 -5.117784,0.27358 -2.303869,0 -4.494052,-0.18199 -6.570786,-0.545971 -2.076734,-0.364219 -4.024591,-0.9159 -5.843335,-1.655519 C 14.735,41.228269 13.080259,40.304756 11.589045,39.197349 10.097832,38.089943 8.8192757,36.801022 7.7531399,35.330824 6.6870041,33.860626 5.8667535,32.206296 5.2921509,30.36736 4.7175484,28.528661 4.4303657,26.507733 4.4303657,24.305053 c 0,-2.196971 0.2871827,-4.214805 0.8615479,-6.053504 C 5.8662788,16.41285 6.6867667,14.75852 7.7529025,13.288322 8.8192757,11.818124 10.097832,10.529441 11.588571,9.4217965 13.079309,8.314628 14.734288,7.3911153 16.55327,6.6514963 18.372014,5.9116394 20.323432,5.3582931 22.407286,4.9914573 24.491377,4.6241457 26.678,4.4407278 28.967866,4.4407278 Z"
       fill="#bf41b0"
       fill-rule="evenodd"
       id="path212"
       style="stroke-width:0.237618" />
    <path
       d="M 68.986171,19.222878 66.12194,29.567553 h 12.620371 l 2.80893,-10.344675 z M 68.06244,4.4407278 h 4.634795 L 69.793605,15.476966 H 82.349182 L 85.219347,4.4407278 h 4.635032 L 86.984215,15.476966 h 8.110417 v 3.745912 h -8.948706 l -2.799912,10.344675 h 7.935972 v 3.745912 H 82.538105 L 79.567308,44.407274 H 74.975946 L 77.913041,33.313465 H 65.346547 l -2.937333,11.093809 h -4.590175 l 2.937095,-11.093809 h -8.145543 v -3.745912 h 8.910493 l 2.873251,-10.344675 h -7.937158 v -3.745912 h 8.735098 z"
       fill="#cb8035"
       fill-rule="evenodd"
       id="path214"
       style="stroke-width:0.237618" />
    <path
       d="m 38.957549,55.350495 c 0.841611,0 1.709093,0.01546 2.602682,0.04663 0.893589,0.03116 1.691054,0.07089 2.392872,0.119424 0.70158,0.04853 1.288999,0.09659 1.762019,0.144403 l 2.623331,0.285713 v 3.806576 h -1.756799 c -1.640501,-0.04377 -5.305758,-0.339954 -8.08597,-0.261924 -2.779976,0.07803 -5.90457,0.243606 -8.59483,0.730579 -2.690023,0.487211 -5.187326,1.146421 -7.491669,1.97763 -2.304344,0.831447 -4.4416,1.802063 -6.412005,2.911611 -1.970405,1.109547 -3.687805,2.237413 -5.152436,3.383596 V 94.84125 H 5.8544118 V 56.295419 h 4.9903322 v 7.635037 c 0.921358,-1.174731 2.488283,-2.292366 4.701013,-3.353145 2.212968,-1.060541 4.574748,-1.979534 7.085816,-2.75674 2.510831,-0.776969 5.128227,-1.383128 7.851953,-1.817765 2.723488,-0.434874 5.548321,-0.652311 8.474023,-0.652311 z"
       fill="#41c2bf"
       fill-rule="evenodd"
       id="path216"
       style="stroke-width:0.237618" />
    <path
       d="m 89.251059,74.177593 c -5.650141,0.31783 -10.64071,0.771498 -14.971946,1.360766 -4.331236,0.589269 -7.835101,1.301054 -10.511359,2.135356 -2.676257,0.834301 -4.607263,1.780414 -5.793494,2.8381 -1.185993,1.057924 -1.779108,2.234321 -1.779108,3.529189 0,1.078383 0.28386,2.030205 0.851817,2.855467 0.56772,0.8255 1.406483,1.528245 2.516289,2.108473 1.109807,0.579991 2.471907,1.019861 4.086538,1.31961 1.614393,0.299511 3.461381,0.449386 5.540726,0.449386 1.248176,0 2.514153,-0.06495 3.797693,-0.195075 1.28354,-0.130129 2.572065,-0.313785 3.865811,-0.551205 1.293508,-0.237421 2.558061,-0.516235 3.793421,-0.836205 1.235597,-0.31997 2.413758,-0.675863 3.534957,-1.067202 1.121199,-0.391339 2.135594,-0.805278 3.043898,-1.241818 0.908067,-0.436301 1.583065,-0.815508 2.024757,-1.136905 z M 73.359654,55.588391 c 2.816051,0 5.473321,0.23409 7.972047,0.702508 2.498726,0.468179 4.677754,1.220645 6.537084,2.257158 1.859566,1.036275 3.330843,2.387287 4.414305,4.05256 1.083224,1.665511 1.624837,3.67716 1.624837,6.035187 v 25.495801 h -4.656868 v -4.082297 c -0.796754,0.666585 -2.062019,1.298437 -3.795558,1.895794 -1.733539,0.59712 -3.557267,1.111927 -5.471422,1.544422 -1.913918,0.432495 -3.880051,0.766025 -5.898162,1.000353 -2.01811,0.234328 -4.011063,0.351373 -5.979094,0.351373 -2.566131,0 -4.864067,-0.218627 -6.894045,-0.655642 -2.029977,-0.437015 -3.77206,-1.101459 -5.226486,-1.99357 -1.454426,-0.89211 -2.578473,-2.006415 -3.372141,-3.342678 -0.793431,-1.336262 -1.190265,-2.885204 -1.190265,-4.646587 0,-1.754959 0.460441,-3.299381 1.381087,-4.633026 0.920883,-1.333646 2.215104,-2.486966 3.882662,-3.459486 1.66732,-0.972519 3.653627,-1.789692 5.958683,-2.451281 2.305293,-0.661827 4.855522,-1.219456 7.650687,-1.673599 2.795403,-0.453906 5.829333,-0.82883 9.101791,-1.124535 3.272695,-0.295943 6.556783,-0.533601 9.852263,-0.712975 v -2.298076 c 0,-1.045316 -0.207199,-1.971445 -0.621597,-2.778389 -0.41416,-0.806943 -0.997069,-1.514684 -1.748253,-2.123461 -0.751422,-0.608776 -1.641688,-1.12049 -2.670799,-1.535381 -1.029348,-0.414653 -2.166211,-0.753893 -3.410827,-1.01772 -1.244617,-0.264064 -2.553315,-0.453192 -3.925858,-0.56762 -1.372543,-0.114428 -2.742001,-0.171523 -4.108373,-0.171523 -1.841766,0 -3.525226,0.08731 -5.049905,0.262162 -1.524678,0.174853 -2.962253,0.418459 -4.312248,0.730817 -1.350233,0.312357 -2.622144,0.666584 -3.816207,1.062206 -1.194062,0.395859 -2.686462,0.839059 -4.477438,1.329601 v -4.863072 c 2.937807,-0.745567 5.879886,-1.363621 8.826,-1.853687 2.945877,-0.490304 6.087323,-0.735337 9.4241,-0.735337 z"
       fill="#a4bf41"
       fill-rule="evenodd"
       id="path218"
       style="stroke-width:0.237618" />
  </g>
</svg>
